<svg xmlns="http://www.w3.org/2000/svg" xmlns:xlink="http://www.w3.org/1999/xlink"  zoomAndPan="magnify" viewBox="0 0 375 374.999991" preserveAspectRatio="xMidYMid meet" version="1.0"><defs><g/><clipPath id="abb7a554aa"><path d="M 4.476562 4.476562 L 370.523438 4.476562 L 370.523438 370.523438 L 4.476562 370.523438 Z M 4.476562 4.476562 " clip-rule="nonzero"/></clipPath><clipPath id="d2613e6a18"><path d="M 187.5 4.476562 C 86.417969 4.476562 4.476562 86.417969 4.476562 187.5 C 4.476562 288.582031 86.417969 370.523438 187.5 370.523438 C 288.582031 370.523438 370.523438 288.582031 370.523438 187.5 C 370.523438 86.417969 288.582031 4.476562 187.5 4.476562 " clip-rule="nonzero"/></clipPath></defs><g clip-path="url(#abb7a554aa)"><g clip-path="url(#d2613e6a18)"><path fill="#0cc0df" d="M 4.476562 4.476562 L 370.523438 4.476562 L 370.523438 370.523438 L 4.476562 370.523438 Z M 4.476562 4.476562 " fill-opacity="1" fill-rule="nonzero"/></g></g><g fill="#000000" fill-opacity="1"><g transform="translate(54.370924, 256.924212)"><g><path d="M 90.746094 -109.785156 C 76.652344 -116.464844 62.804688 -116.464844 61.570312 -116.464844 C 48.960938 -116.464844 36.84375 -123.882812 36.84375 -138.222656 C 36.84375 -154.046875 47.96875 -162.207031 61.570312 -162.207031 C 74.425781 -162.207031 85.308594 -155.53125 85.800781 -141.4375 C 85.800781 -140.695312 87.039062 -139.460938 88.523438 -139.460938 L 119.429688 -139.460938 C 121.160156 -139.460938 122.398438 -140.695312 122.148438 -141.4375 C 121.65625 -175.066406 95.445312 -197.8125 61.570312 -197.8125 C 29.917969 -197.8125 0 -175.3125 0 -138.222656 C 0 -115.226562 11.621094 -97.671875 32.144531 -88.273438 C 46.488281 -81.597656 59.839844 -81.597656 61.570312 -81.597656 C 72.695312 -81.105469 86.296875 -72.203125 86.296875 -57.613281 C 86.296875 -44.507812 74.675781 -35.605469 61.570312 -35.605469 C 61.570312 -35.605469 61.570312 -35.605469 61.324219 -35.605469 L 61.324219 0 C 61.570312 0 61.570312 0 61.570312 0 C 93.21875 0 122.890625 -20.523438 122.890625 -57.613281 C 122.890625 -80.855469 111.519531 -100.144531 90.746094 -109.785156 Z M 90.746094 -109.785156 "/></g></g></g><g fill="#000000" fill-opacity="1"><g transform="translate(155.244954, 305.493884)"><g><path d="M 144.90625 -2.769531 L 74.757812 -183.207031 C 74.066406 -185.054688 70.835938 -185.054688 70.144531 -183.207031 L 0.230469 -2.769531 C -0.460938 -1.382812 0.460938 0 2.539062 0 L 34.148438 0 C 35.074219 0 36.226562 -0.460938 36.457031 -1.382812 L 72.453125 -104.292969 L 108.910156 -1.382812 C 109.140625 -0.460938 110.292969 0 110.984375 0 L 142.828125 0 C 144.441406 0 145.597656 -1.382812 144.90625 -2.769531 Z M 144.90625 -2.769531 "/></g></g></g></svg>